<svg width="120" height="120" viewBox="0 0 120 120" fill="none" xmlns="http://www.w3.org/2000/svg">
<g id="Group 31">
<g id="Group 6">
<path id="Ellipse 1" d="M120 60C120 47.5517 116.128 35.4116 108.921 25.2619C101.714 15.1121 91.5281 7.45537 79.7754 3.35254C68.0226 -0.750292 55.2847 -1.09604 43.3267 2.36319C31.3687 5.82243 20.7827 12.9154 13.0355 22.6592L60 60H120Z" fill="#7D41ED" fill-opacity="0.5"/>
<path id="Ellipse 3" d="M111.066 28.5002C117.296 38.6002 120.392 50.3208 119.96 62.1798C119.529 74.0388 115.591 85.5037 108.644 95.1247C101.697 104.746 92.0533 112.09 80.9319 116.23C69.8106 120.37 57.7114 121.119 46.1643 118.383L60 60L111.066 28.5002Z" fill="#7D41ED"/>
<path id="Ellipse 2" d="M46.6953 118.506C36.8144 116.259 27.6636 111.546 20.0963 104.807C12.5291 98.0682 6.79181 89.5223 3.41972 79.9668C0.0476299 70.4112 -0.849446 60.1573 0.812161 50.1613C2.47377 40.1654 6.63993 30.7531 12.9221 22.8023L60 60L46.6953 118.506Z" fill="#7D41ED" fill-opacity="0.25"/>
</g>
</g>
</svg>
